ffmpeg version 8.0.1 Copyright (c) 2000-2025 the FFmpeg developers
  built with Apple clang version 16.0.0 (clang-1600.0.26.6)
  configuration: --prefix=/opt/homebrew/Cellar/ffmpeg/8.0.1 --enable-shared --enable-pthreads --enable-version3 --cc=clang --host-cflags= --host-ldflags= --enable-ffplay --enable-gnutls --enable-gpl --enable-libaom --enable-libaribb24 --enable-libbluray --enable-libdav1d --enable-libharfbuzz --enable-libjxl --enable-libmp3lame --enable-libopus --enable-librav1e --enable-librist --enable-librubberband --enable-libsnappy --enable-libsrt --enable-libssh --enable-libsvtav1 --enable-libtesseract --enable-libtheora --enable-libvidstab --enable-libvmaf --enable-libvorbis --enable-libvpx --enable-libwebp --enable-libx264 --enable-libx265 --enable-libxml2 --enable-libxvid --enable-lzma --enable-libfontconfig --enable-libfreetype --enable-frei0r --enable-libass --enable-libopencore-amrnb --enable-libopencore-amrwb --enable-libopenjpeg --enable-libspeex --enable-libsoxr --enable-libzmq --enable-libzimg --disable-libjack --disable-indev=jack --enable-videotoolbox --enable-audiotoolbox --enable-neon
  libavutil      60.  8.100 / 60.  8.100
  libavcodec     62. 11.100 / 62. 11.100
  libavformat    62.  3.100 / 62.  3.100
  libavdevice    62.  1.100 / 62.  1.100
  libavfilter    11.  4.100 / 11.  4.100
  libswscale      9.  1.100 /  9.  1.100
  libswresample   6.  1.100 /  6.  1.100
[avfoundation @ 0x806c4c000] Stream #0: not enough frames to estimate rate; consider increasing probesize
Input #0, avfoundation, from '0':
  Duration: N/A, start: 569361.315600, bitrate: N/A
  Stream #0:0: Video: rawvideo (UYVY / 0x59565955), uyvy422, 1920x1080, 1000k tbr, 1000k tbn, start 569361.315600
Stream mapping:
  Stream #0:0 -> #0:0 (rawvideo (native) -> h264 (h264_videotoolbox))
Press [q] to stop, [?] for help
Output #0, null, to 'pipe:':
  Metadata:
    encoder         : Lavf62.3.100
  Stream #0:0: Video: h264, yuv420p(progressive), 1920x1080, q=2-31, 15000 kb/s, 1000k fps, 1000k tbn
    Metadata:
      encoder         : Lavc62.11.100 h264_videotoolbox
[h264_videotoolbox @ 0x806725c00] Color range not set for yuv420p. Using MPEG range.
frame=   11 fps=0.0 q=-0.0 size=N/A time=00:00:00.33 bitrate=N/A speed=0.663x elapsed=0:00:00.50    frame=   27 fps= 27 q=-0.0 size=N/A time=00:00:00.86 bitrate=N/A speed=0.86x elapsed=0:00:01.00    frame=   42 fps= 28 q=-0.0 size=N/A time=00:00:01.36 bitrate=N/A speed=0.904x elapsed=0:00:01.51    frame=   57 fps= 28 q=-0.0 size=N/A time=00:00:01.86 bitrate=N/A speed=0.927x elapsed=0:00:02.01    frame=   72 fps= 29 q=-0.0 size=N/A time=00:00:02.36 bitrate=N/A speed=0.94x elapsed=0:00:02.52    frame=   87 fps= 29 q=-0.0 size=N/A time=00:00:02.86 bitrate=N/A speed=0.948x elapsed=0:00:03.02    frame=  102 fps= 29 q=-0.0 size=N/A time=00:00:03.36 bitrate=N/A speed=0.954x elapsed=0:00:03.52    frame=  117 fps= 29 q=-0.0 size=N/A time=00:00:03.86 bitrate=N/A speed=0.959x elapsed=0:00:04.03    frame=  132 fps= 29 q=-0.0 size=N/A time=00:00:04.36 bitrate=N/A speed=0.962x elapsed=0:00:04.53    frame=  147 fps= 29 q=-0.0 size=N/A time=00:00:04.86 bitrate=N/A speed=0.966x elapsed=0:00:05.03    frame=  162 fps= 29 q=-0.0 size=N/A time=00:00:05.36 bitrate=N/A speed=0.969x elapsed=0:00:05.54    frame=  178 fps= 29 q=-0.0 size=N/A time=00:00:05.90 bitrate=N/A speed=0.977x elapsed=0:00:06.04    frame=  192 fps= 29 q=-0.0 size=N/A time=00:00:06.36 bitrate=N/A speed=0.973x elapsed=0:00:06.54    frame=  207 fps= 29 q=-0.0 size=N/A time=00:00:06.87 bitrate=N/A speed=0.974x elapsed=0:00:07.05    frame=  223 fps= 30 q=-0.0 size=N/A time=00:00:07.40 bitrate=N/A speed=0.98x elapsed=0:00:07.55    frame=  238 fps= 30 q=-0.0 size=N/A time=00:00:07.90 bitrate=N/A speed=0.981x elapsed=0:00:08.05    frame=  253 fps= 30 q=-0.0 size=N/A time=00:00:08.40 bitrate=N/A speed=0.982x elapsed=0:00:08.55    frame=  268 fps= 30 q=-0.0 size=N/A time=00:00:08.90 bitrate=N/A speed=0.983x elapsed=0:00:09.06    frame=  283 fps= 30 q=-0.0 size=N/A time=00:00:09.40 bitrate=N/A speed=0.983x elapsed=0:00:09.56    [out#0/null @ 0x807005200] video:18572KiB audio:0KiB subtitle:0KiB other streams:0KiB global headers:0KiB muxing overhead: unknown
frame=  300 fps= 30 q=-0.0 Lsize=N/A time=00:00:09.97 bitrate=N/A speed=0.996x elapsed=0:00:10.01    
